<svg xmlns="http://www.w3.org/2000/svg" xmlns:xlink="http://www.w3.org/1999/xlink" width="200" height="50" viewBox="0 0 200 50">
    <defs>
        <path id="4p6o5wgnda" d="M0 0L199.815 0 199.815 49.823 0 49.823z"/>
    </defs>
    <g fill="none" fill-rule="evenodd">
        <g>
            <g>
                <g transform="translate(-172 -10) translate(-11) translate(183 10)">
                    <mask id="osctzosljb" fill="#fff">
                        <use xlink:href="#4p6o5wgnda"/>
                    </mask>
                    <path fill="#FD0000" d="M196.522 6.208l-16.695 38.427c-.548 1.261-1.85 2.076-3.318 2.076h-38.383c-1.54 0-2.564-1.668-1.926-3.136l3.493-8.047h12.535l-1.234 2.681h18.9l4.488-10.142H154.48l3.365-7.644h19.908l3.888-8.925h-31.523l2.733-6.249c.564-1.297 1.904-2.135 3.414-2.136h38.001c.821 0 1.557.361 2.016.992.46.63.548 1.397.241 2.103zm-54.081 26.207l7.735-17.806h26.714l-1.177 2.702h-19.898l-6.107 13.868h19.894l-1.734 3.918h-12.015l1.234-2.682h-14.646zm-8.703 12.22c-.548 1.261-1.85 2.076-3.318 2.076H93.285c-1.014 0-1.92-.446-2.487-1.223-.567-.778-.676-1.723-.298-2.593l3.196-7.366h12.579l-1.164 2.68 18.875.003 4.41-10.144-28.956-.003c-1.17 0-1.947-1.267-1.463-2.382l8.89-20.461c.557-1.28 1.88-2.108 3.37-2.108h37.973c.814 0 1.541.358 1.997.982.455.625.543 1.385.239 2.084l-16.708 38.455zM95.7 32.417l.945-2.171c.803.597 1.787.93 2.793.93l24.211.003-1.704 3.92-12.092-.001 1.164-2.682-15.317.001zM86.09 46.711H75.115L94.077 3.113h3.288c3.704 0 6.256 3.298 4.921 6.364L86.09 46.71zm-25.14 0L79.913 3.113H90.89L71.925 46.71H60.95zm-14.183 0L65.729 3.113h10.978L57.741 46.71H46.767zm-13.98 0L51.75 3.113h4.985c2.805 0 4.67 3.04 3.507 5.715L43.762 46.71H32.788zm-14.04 0L37.707 3.113h10.978L29.721 46.71H18.746zm-14 0L23.71 3.113h10.978L15.722 46.71H4.747zm194.05-44.44C197.743.828 196.091 0 194.264 0h-38.001c-1.57 0-3.068.51-4.27 1.446-1.02-.936-2.344-1.446-3.784-1.446h-37.974c-2.506 0-4.77 1.317-5.936 3.403-1.564-2.138-4.126-3.403-6.935-3.403H63.688l-1.294 2.98C61.087 1.11 58.988 0 56.735 0H21.67L0 49.824h88.13l.774-1.778c1.141 1.14 2.696 1.778 4.381 1.778h37.136c1.531 0 2.994-.493 4.174-1.399.958.895 2.218 1.4 3.531 1.4h38.384c2.708 0 5.13-1.55 6.172-3.949l16.696-38.427c.746-1.719.53-3.654-.58-5.177zm-80.054 12.338h12.095l-1.63 3.756h-12.095l1.63-3.756zm-6.373 6.868h18.88l4.332-9.98h-18.88l-4.332 9.98z" mask="url(#osctzosljb)"/>
                </g>
            </g>
        </g>
    </g>
</svg>
